<?xml version="1.0" encoding="utf-8" ?>
<svg xmlns="http://www.w3.org/2000/svg" xmlns:xlink="http://www.w3.org/1999/xlink" width="446" height="189">
	<path fill="rgb(248,248,255)" stroke="rgb(248,248,255)" stroke-width="3" stroke-miterlimit="4" d="M0 188L0 1Q0 0.901509 0.0192147 0.80491Q0.0384294 0.708311 0.0761205 0.617316Q0.113811 0.526322 0.16853 0.44443Q0.223249 0.362537 0.292893 0.292893Q0.362537 0.223249 0.44443 0.16853Q0.526322 0.113811 0.617316 0.0761205Q0.708311 0.0384294 0.80491 0.0192147Q0.901509 0 1 0L445 0Q445.098 0 445.195 0.0192147Q445.292 0.0384294 445.383 0.0761205Q445.474 0.113811 445.556 0.16853Q445.637 0.223249 445.707 0.292893Q445.777 0.362537 445.831 0.44443Q445.886 0.526322 445.924 0.617316Q445.962 0.708311 445.981 0.80491Q446 0.901509 446 1L446 188Q446 188.098 445.981 188.195Q445.962 188.292 445.924 188.383Q445.886 188.474 445.831 188.556Q445.777 188.637 445.707 188.707Q445.637 188.777 445.556 188.831Q445.474 188.886 445.383 188.924Q445.292 188.962 445.195 188.981Q445.098 189 445 189L1 189Q0.901509 189 0.80491 188.981Q0.708311 188.962 0.617316 188.924Q0.526322 188.886 0.44443 188.831Q0.362537 188.777 0.292893 188.707Q0.223249 188.637 0.16853 188.556Q0.113811 188.474 0.0761205 188.383Q0.0384294 188.292 0.0192147 188.195Q0 188.098 0 188Z"/>
	<path fill="none" stroke="rgb(0,0,0)" stroke-width="3" stroke-miterlimit="4" stroke-opacity="0.047058824" d="M0 188L0 1Q0 0.901509 0.0192147 0.80491Q0.0384294 0.708311 0.0761205 0.617316Q0.113811 0.526322 0.16853 0.44443Q0.223249 0.362537 0.292893 0.292893Q0.362537 0.223249 0.44443 0.16853Q0.526322 0.113811 0.617316 0.0761205Q0.708311 0.0384294 0.80491 0.0192147Q0.901509 0 1 0L445 0Q445.098 0 445.195 0.0192147Q445.292 0.0384294 445.383 0.0761205Q445.474 0.113811 445.556 0.16853Q445.637 0.223249 445.707 0.292893Q445.777 0.362537 445.831 0.44443Q445.886 0.526322 445.924 0.617316Q445.962 0.708311 445.981 0.80491Q446 0.901509 446 1L446 188Q446 188.098 445.981 188.195Q445.962 188.292 445.924 188.383Q445.886 188.474 445.831 188.556Q445.777 188.637 445.707 188.707Q445.637 188.777 445.556 188.831Q445.474 188.886 445.383 188.924Q445.292 188.962 445.195 188.981Q445.098 189 445 189L1 189Q0.901509 189 0.80491 188.981Q0.708311 188.962 0.617316 188.924Q0.526322 188.886 0.44443 188.831Q0.362537 188.777 0.292893 188.707Q0.223249 188.637 0.16853 188.556Q0.113811 188.474 0.0761205 188.383Q0.0384294 188.292 0.0192147 188.195Q0 188.098 0 188Z"/>
</svg>
